# xmcd
#
# Track frame offsets:
#	150
#	14335
#	28419
#	43942
#	63472
#	78825
#	95522
#	110722
#	123697
#	137397
#	153315
#	167272
#	181597
#	198442
#	216212
#	229975
#	244887
#	260452
#
# Disc length: 3774 seconds
#
# Revision: 2
# Processed by: cddbd v1.4PL0 Copyright (c) Steve Scherf et al.
# Submitted via: audiograbber 1.81.02
#
DISCID=f80ebc12
DTITLE=Various Artist - Kickin'  Country  4
DYEAR=1900
DGENRE=Country
TTITLE0=Wade Hayes - On A Good Night
TTITLE1=Terri Clark - Better Things To Do
TTITLE2=Collin Raye - I Think About You
TTITLE3=The Mavericks - All You Ever Do Is Bring Me Down
TTITLE4=Patty Loveless - You Can Feel Better
TTITLE5=Little Texas - Kick A Little
TTITLE6=Rhett Akins - Don't Get Me Started
TTITLE7=Mary Chapin Carpenter - Let Me Into Your Heart
TTITLE8=Ricochet - Daddy's Money
TTITLE9=Thomas Wade and Wayward - Zero To Sixty
TTITLE10=Rick Trevino - Running Out Of Reasons To Run
TTITLE11=Mark Chesnutt - It Would't Hurt To Have Wings
TTITLE12=Farmer's Daughter - Calling All You Cowboys
TTITLE13=Joe DIffie - Bigger Than The Beatles
TTITLE14=Rick Tippe - The Craziest Thing
TTITLE15=Chris Cummings - I Waited
TTITLE16=James Bonamy - She's Got A Mind Of Her Own
TTITLE17=Joe Diffie - 3rd Rock From The Sun ( CLUB MIX )
EXTD=
EXTT0=
EXTT1=
EXTT2=
EXTT3=
EXTT4=
EXTT5=
EXTT6=
EXTT7=
EXTT8=
EXTT9=
EXTT10=
EXTT11=
EXTT12=
EXTT13=
EXTT14=
EXTT15=
EXTT16=
EXTT17=
PLAYORDER=
